<?xml version="1.0" standalone="no"?>
<!DOCTYPE svg PUBLIC "-//W3C//DTD SVG 20010904//EN"
 "http://www.w3.org/TR/2001/REC-SVG-20010904/DTD/svg10.dtd">
<svg version="1.0" xmlns="http://www.w3.org/2000/svg"
 width="900.000000pt" height="900.000000pt" viewBox="0 0 900.000000 900.000000"
 preserveAspectRatio="xMidYMid meet">

<g transform="translate(0.000000,900.000000) scale(0.100000,-0.100000)"
fill="#000000" stroke="none">
<path d="M4195 8989 c-1253 -83 -2421 -696 -3209 -1683 -1004 -1256 -1260
-2959 -669 -4456 556 -1409 1797 -2454 3273 -2755 322 -66 567 -89 925 -89
403 1 707 38 1075 130 1170 293 2170 1037 2785 2074 545 918 743 2025 555
3090 -161 906 -619 1770 -1282 2416 -922 899 -2169 1359 -3453 1273z m610
-179 c1340 -96 2543 -797 3291 -1916 63 -93 114 -173 114 -177 0 -4 -64 -7
-143 -7 -241 0 -564 -48 -1013 -152 l-222 -51 -223 225 c-226 227 -369 353
-579 509 -867 646 -1788 915 -2667 780 -682 -105 -1391 -383 -1903 -745 -302
-215 -607 -519 -769 -769 -86 -133 -56 -66 66 146 520 908 1381 1613 2370
1943 347 116 757 197 1103 217 132 8 446 6 575 -3z m49 -1561 c317 -45 654
-161 950 -326 218 -121 462 -296 620 -443 l68 -64 -69 -18 c-301 -81 -938
-279 -1328 -412 l-220 -75 -1175 235 c-646 129 -1184 238 -1194 243 -17 6 -4
21 87 99 253 217 483 370 762 508 340 167 620 244 1015 278 91 8 349 -6 484
-25z m3578 -954 c151 -328 274 -733 333 -1095 81 -496 72 -1042 -25 -1534
-166 -842 -573 -1606 -1180 -2215 -623 -626 -1438 -1051 -2305 -1204 -149 -27
-372 -53 -380 -46 -2 3 13 39 34 80 58 111 144 335 202 525 42 141 144 533
176 678 l8 40 155 38 c1073 265 1905 800 2398 1542 319 481 576 1253 643 1931
16 157 16 540 0 685 -16 158 -47 333 -81 470 -30 119 -100 332 -126 381 -8 15
-14 32 -14 36 1 13 107 -193 162 -312z m-7785 -48 c133 -211 494 -603 847
-919 l39 -35 -36 -139 c-68 -261 -113 -514 -149 -829 -20 -174 -17 -727 5
-905 85 -695 334 -1283 744 -1757 646 -748 1409 -1239 2193 -1412 121 -27 281
-51 345 -52 28 0 59 -5 70 -10 31 -15 -500 -2 -659 15 -1090 121 -2071 630
-2789 1446 -595 677 -951 1493 -1054 2412 -20 186 -23 653 -4 833 49 481 158
904 342 1332 24 57 46 103 49 103 3 0 28 -37 57 -83z m4050 -682 c480 -91 843
-491 881 -970 36 -461 -207 -881 -624 -1076 -330 -155 -742 -125 -1047 78
-408 271 -585 780 -431 1242 57 173 132 293 267 429 152 155 366 265 586 302
81 14 285 11 368 -5z m2519 -577 c63 -508 22 -1014 -117 -1433 -127 -382 -339
-719 -632 -1001 -209 -202 -422 -352 -702 -494 -130 -66 -384 -175 -391 -168
-1 2 9 59 22 128 60 310 161 933 215 1330 l21 155 116 120 c64 66 212 217 327
335 116 118 301 307 411 420 110 113 295 302 411 420 116 118 231 236 254 262
23 27 44 46 47 44 2 -3 10 -56 18 -118z m-5231 -93 c281 -239 847 -695 1041
-839 l50 -38 84 -231 c45 -128 111 -311 146 -407 34 -96 144 -402 244 -680
100 -278 212 -590 250 -695 38 -104 67 -191 65 -193 -11 -11 -352 122 -522
203 -339 162 -584 329 -822 560 -423 411 -665 908 -748 1534 -30 231 -22 643
19 879 9 57 12 62 27 49 9 -8 84 -71 166 -142z"/>
</g>
</svg>
